<svg xmlns="http://www.w3.org/2000/svg" data-name="Ebene 1" viewBox="0.5 321.34 367.08 48.09">  <path d="M367.45 346.48c.09.85.13 1.66.13 2.48 0 11.1-7.61 20.47-20.7 20.47-12.39 0-22.11-9.49-22.11-21.98s9.6-21.98 21.96-21.98c7.76 0 14.24 3.68 18.24 9.69l-5.13 3.58c-3.52-4.72-7.49-7.01-13.11-7.01-8.78 0-15.07 6.6-15.07 15.72s6.42 15.73 15.22 15.73c8.21 0 12.87-4.94 13.72-10.73h-14.72v-5.97h21.57Zm-54.36-20.38v42.7h-6.67l-25.94-32.23v32.23h-6.61v-42.7h6.61l26 32.55V326.1h6.61zm-44.42-3.18v2.47l-5.98 1.59-3.3-.88-6.61 7.76v3.89l-3.3-3.89v-3.88l3.3-3.88 6.61-3.88 3.3-.88 5.98 1.58zm-5.98 30.36v3.88l-3.3 3.88-6.61 3.88-6.6 3.88 6.6-7.76 6.61-7.77v-3.88l3.3 3.89zm0-15.54v3.89l-3.3 3.88-6.61 3.88v3.89l-3.3-3.89v-3.88l3.3-3.88 6.61-3.88v-3.89l3.3 3.88z" class="cls-1"></path>  <path d="M259.39 361.04v7.76h-6.61v-3.88l6.61-3.88zM238.3 326.1v42.7h-6.61V350h-23.14v18.8h-6.61v-42.7h6.61v17.92h23.14V326.1h6.61zm-51.88 29.53 4.94 3.43c-4.03 6.54-10.95 10.37-18.78 10.37-12.39 0-22.11-9.49-22.11-21.98s9.6-21.98 21.95-21.98c7.77 0 14.66 3.8 18.78 10.41l-5.13 3.58c-3.43-5.15-8.02-7.73-13.65-7.73-8.77 0-15.03 6.6-15.03 15.72s6.39 15.73 15.19 15.73c5.66 0 10.5-2.65 13.84-7.55Zm-66.82-29.5c12.68 0 21.95 9.12 21.95 21.35s-9.27 21.32-21.95 21.32h-17.17v-42.67h17.17Zm15.04 21.35c0-8.61-6.04-15.44-15.13-15.44h-10.47v30.79h10.47c9.09 0 15.13-6.7 15.13-15.35ZM90.75 362.8v6h-30.6v-42.7h29.94v6.01H66.75v11.76h20.03v6H66.75v12.93h24zm-45.09-36.7v42.7h-6.67v-30.59l-13.55 27.58h-4.72L7.17 338.21v30.59H.5v-42.7h7.83l14.75 30.38 14.78-30.38h7.8z" class="cls-1"></path></svg>