<?xml version="1.0" encoding="UTF-8"?>
<svg id="Ebene_2" data-name="Ebene 2" xmlns="http://www.w3.org/2000/svg" viewBox="0 0 367.58 48.59">
  <defs>
    <style>
      .cls-1 {
        fill: #10757f;
      }
    </style>
  </defs>
  <path class="cls-1" d="m367.2,25.39c.09.85.13,1.66.13,2.48,0,11.1-7.61,20.47-20.7,20.47-12.39,0-22.11-9.49-22.11-21.98s9.6-21.98,21.96-21.98c7.76,0,14.24,3.68,18.24,9.69l-5.13,3.58c-3.52-4.72-7.49-7.01-13.11-7.01-8.78,0-15.07,6.6-15.07,15.72s6.42,15.73,15.22,15.73c8.21,0,12.87-4.94,13.72-10.73h-14.72v-5.97h21.57Z"/>
  <polygon class="cls-1" points="312.84 5.01 312.84 47.71 306.17 47.71 280.23 15.48 280.23 47.71 273.62 47.71 273.62 5.01 280.23 5.01 306.23 37.56 306.23 5.01 312.84 5.01"/>
  <polygon class="cls-1" points="268.42 1.83 268.42 4.3 262.44 5.89 259.14 5.01 252.53 12.77 252.53 16.66 249.23 12.77 249.23 8.89 252.53 5.01 259.14 1.13 262.44 .25 268.42 1.83"/>
  <polygon class="cls-1" points="262.44 32.19 262.44 36.07 259.14 39.95 252.53 43.83 245.93 47.71 252.53 39.95 259.14 32.18 259.14 28.3 262.44 32.19"/>
  <polygon class="cls-1" points="262.44 16.65 262.44 20.54 259.14 24.42 252.53 28.3 252.53 32.19 249.23 28.3 249.23 24.42 252.53 20.54 259.14 16.66 259.14 16.65 259.14 12.77 262.44 16.65"/>
  <polygon class="cls-1" points="259.14 39.95 259.14 47.71 252.53 47.71 252.53 43.83 259.14 39.95"/>
  <polygon class="cls-1" points="238.05 5.01 238.05 47.71 231.44 47.71 231.44 28.91 208.3 28.91 208.3 47.71 201.69 47.71 201.69 5.01 208.3 5.01 208.3 22.93 231.44 22.93 231.44 5.01 238.05 5.01"/>
  <path class="cls-1" d="m186.17,34.54l4.94,3.43c-4.03,6.54-10.95,10.37-18.78,10.37-12.39,0-22.11-9.49-22.11-21.98s9.6-21.98,21.95-21.98c7.77,0,14.66,3.8,18.78,10.41l-5.13,3.58c-3.43-5.15-8.02-7.73-13.65-7.73-8.77,0-15.03,6.6-15.03,15.72s6.39,15.73,15.19,15.73c5.66,0,10.5-2.65,13.84-7.55Z"/>
  <path class="cls-1" d="m119.35,5.04c12.68,0,21.95,9.12,21.95,21.35s-9.27,21.32-21.95,21.32h-17.17V5.04h17.17Zm15.04,21.35c0-8.61-6.04-15.44-15.13-15.44h-10.47v30.79h10.47c9.09,0,15.13-6.7,15.13-15.35Z"/>
  <polygon class="cls-1" points="90.5 41.71 90.5 47.71 59.9 47.71 59.9 5.01 89.84 5.01 89.84 11.02 66.5 11.02 66.5 22.78 86.53 22.78 86.53 28.78 66.5 28.78 66.5 41.71 90.5 41.71"/>
  <polygon class="cls-1" points="45.41 5.01 45.41 47.71 38.74 47.71 38.74 17.12 25.19 44.7 20.47 44.7 6.92 17.12 6.92 47.71 .25 47.71 .25 5.01 8.08 5.01 22.83 35.39 37.61 5.01 45.41 5.01"/>
</svg>