<svg xmlns="http://www.w3.org/2000/svg" id="Ebene_3" data-name="Ebene 3" viewBox="0 0 482.21 142.34">
  <defs>
    <style>
      .cls-2{fill:#1b98af}.cls-3{fill:#0c757f}
    </style>
  </defs>
  <path d="M460.02 70.55c12.67 0 21.95 9.12 21.95 21.35s-9.28 21.33-21.95 21.33h-17.18V70.55h17.18Zm15.03 21.35c0-8.61-6.04-15.44-15.13-15.44h-10.47v30.79h10.47c9.09 0 15.13-6.7 15.13-15.35ZM431.16 107.22v6.01h-30.6V70.52h29.94v6h-23.34v11.77h20.04v6h-20.04v12.93h24zM386.07 70.52v42.71h-6.66v-30.6l-13.56 27.58h-4.72l-13.55-27.58v30.6h-6.67V70.52h7.83l14.75 30.38 14.78-30.38h7.8zM307.12 69.89c12.67 0 22.07 9.25 22.07 22.04s-9.4 21.92-22.07 21.92-22.05-9.02-22.05-21.92 9.47-22.04 22.05-22.04Zm15.16 21.98c0-9.18-6.01-15.72-15.16-15.72s-15.13 6.54-15.13 15.72 6.1 15.73 15.13 15.73 15.16-6.33 15.16-15.73ZM267.09 95.55l10.35 17.68h-7.67l-9.66-16.77h-10.66v16.77h-6.6V70.55h18.36c8.81 0 14.53 4.97 14.53 12.96 0 5.85-3.36 10.19-8.65 12.04Zm1.77-12.04c0-4.25-2.71-7.02-7.96-7.02h-11.45v14.09h11.45c5.25 0 7.96-2.92 7.96-7.07ZM232.17 83.92c0 7.83-5.69 13.39-14.5 13.39h-10.94v15.92h-6.61V70.55h17.55c8.81 0 14.5 5.44 14.5 13.37Zm-6.89 0c0-4.16-2.7-7.36-7.89-7.36h-10.66v14.71h10.66c5.19 0 7.89-3.27 7.89-7.35ZM189.44 83.92c0 7.83-5.69 13.39-14.5 13.39H164v15.92h-6.6V70.55h17.54c8.81 0 14.5 5.44 14.5 13.37Zm-6.89 0c0-4.16-2.7-7.36-7.89-7.36H164v14.71h10.66c5.19 0 7.89-3.27 7.89-7.35Z" class="cls-3"/>
  <path d="m82.48 11.69 41.11 59.48 24.38 42.06h-22.4L82.48 37.49v-25.8z" class="cls-2"/>
  <path d="m82.48.25 41.11 70.92-41.11-59.48V.25z" class="cls-3"/>
  <path d="m82.48 106.7-34.86 20.32h-19.2l6.07-10.06 20.67-10.26h27.32z" class="cls-2"/>
  <path d="m82.48 37.49-47.99 79.47-6.07 10.06h19.2l34.86-20.32v6.53l-49.52 28.86H.25L40.5 72.65l.01-.02 41.97-60.94v25.8z" class="cls-3"/>
  <path d="M41.36 71.17 82.48.25v11.44L40.51 72.63l.85-1.46z" style="fill:#04666d"/>
</svg>