<svg class="h-8 w-auto fill-appromed dark:fill-white" xmlns="http://www.w3.org/2000/svg" id="Ebene_3" data-name="Ebene 3" viewBox="0 0 368.08 690.76">
  <path d="M356 23.28V59.2l-86.96 23.12-47.99-12.8-96.12 112.85v56.56l-47.98-56.56v-56.42l47.98-56.43 96.12-56.42L269.04.31 356 23.28zM269.04 464.76v56.42l-47.99 56.42-96.12 56.42-95.97 56.42 95.97-112.84 96.12-112.99v-56.42l47.99 56.57zM269.04 238.79v56.56l-47.99 56.42-96.12 56.42v56.57l-47.98-56.57v-56.42l47.98-56.42 96.12-56.42v-56.56l47.99 56.42z" class="cls-1"/>
  <path d="M221.05 577.6v112.84h-96.12v-56.42l96.12-56.42z" class="cls-1"/>
</svg>